<?xml version="1.0" encoding="utf-8"?>
<!-- Generator: Adobe Illustrator 16.0.0, SVG Export Plug-In . SVG Version: 6.00 Build 0)  -->
<!DOCTYPE svg PUBLIC "-//W3C//DTD SVG 1.1//EN" "http://www.w3.org/Graphics/SVG/1.1/DTD/svg11.dtd">
<svg version="1.1" xmlns="http://www.w3.org/2000/svg" xmlns:xlink="http://www.w3.org/1999/xlink" x="0px" y="0px"
	 width="196.224px" height="168.875px" viewBox="0 0 196.224 168.875" enable-background="new 0 0 196.224 168.875"
	 xml:space="preserve">
<g id="Слой_1" display="none">
	
		<image display="inline" overflow="visible" opacity="0.2" width="1500" height="1330" xlink:href="../../../../../../Загрузки/stock-vector-owl-logo-627319796.jpg"  transform="matrix(0.24 0 0 0.24 97.9736 -27.2344)">
	</image>
</g>
<g id="Слой_2">
	<rect x="217.313" y="60.211" display="none" fill="#4051A3" width="120.434" height="120.434"/>
	<g>
		<linearGradient id="SVGID_1_" gradientUnits="userSpaceOnUse" x1="6.3828" y1="129.3208" x2="271.8828" y2="-133.6792">
			<stop  offset="0" style="stop-color:#35C2F2"/>
			<stop  offset="1" style="stop-color:#426FB6"/>
		</linearGradient>
		<path fill="url(#SVGID_1_)" d="M45.954,92.2c0.6,2.23-2.39,8.59-7.14,12.42V89.63C40.443,89.71,45.403,90.12,45.954,92.2z"/>
		<linearGradient id="SVGID_2_" gradientUnits="userSpaceOnUse" x1="6.1426" y1="129.0781" x2="271.6426" y2="-133.9219">
			<stop  offset="0" style="stop-color:#35C2F2"/>
			<stop  offset="1" style="stop-color:#426FB6"/>
		</linearGradient>
		<path fill="url(#SVGID_2_)" d="M67.394,65.1c0-0.42-0.06-0.82-0.17-1.19c2.56,0.67,4.44,3,4.44,5.77c0,3.3-2.67,5.98-5.98,5.98
			c-3.3,0-5.97-2.68-5.97-5.98c0-0.71,0.13-1.4,0.36-2.03c0.75,0.94,1.92,1.55,3.22,1.55C65.563,69.2,67.394,67.36,67.394,65.1z"/>
		<linearGradient id="SVGID_3_" gradientUnits="userSpaceOnUse" x1="8.4785" y1="131.436" x2="273.9785" y2="-131.564">
			<stop  offset="0" style="stop-color:#35C2F2"/>
			<stop  offset="1" style="stop-color:#426FB6"/>
		</linearGradient>
		<path fill="url(#SVGID_3_)" d="M79.304,62.09c1.22,2.24,1.92,4.81,1.92,7.54c0,8.67-7.02,15.7-15.69,15.7
			c-7.42,0-13.64-5.15-15.28-12.08c0.87-0.88,2.35-2.05,4.6-2.91c0.37,5.58,5.01,9.99,10.68,9.99c5.9,0,10.69-4.79,10.69-10.7
			c0-2.21-0.67-4.27-1.83-5.97C75.233,63.25,76.894,62.57,79.304,62.09z"/>
		<linearGradient id="SVGID_4_" gradientUnits="userSpaceOnUse" x1="3.3516" y1="126.2603" x2="268.8516" y2="-136.7397">
			<stop  offset="0" style="stop-color:#35C2F2"/>
			<stop  offset="1" style="stop-color:#426FB6"/>
		</linearGradient>
		<path fill="url(#SVGID_4_)" d="M95.943,48.71c2.34-1.55,4.06-3.19,4.16-3.28c-0.19,0.37-3.44,6.45-11.67,10.27
			c-8.5,3.94-24.62,6.98-31.33,10.44c-4.16,2.11-8.71,3.35-13.65,13.77c0,0-0.68-16.44,17.76-22.94
			C79.644,50.47,90.764,52.12,95.943,48.71z"/>
		<linearGradient id="SVGID_5_" gradientUnits="userSpaceOnUse" x1="17.7158" y1="140.7612" x2="283.2158" y2="-122.2388">
			<stop  offset="0" style="stop-color:#35C2F2"/>
			<stop  offset="1" style="stop-color:#426FB6"/>
		</linearGradient>
		<path fill="url(#SVGID_5_)" d="M159.244,0v120.43h-50.05c-1.96-5.49-5.13-12.78-5.13-12.78s4.17-6.08,5.75-21.5
			c1.58-15.41-4.75-25.97-4.75-25.97s3.04-2,6.04-6.13c4-5.41,5.99-14.22,6.11-14.76c-3.57,5.95-6.93,7.31-7.14,7.38
			c0.22-0.27,3.74-4.72,6.07-11.99c2.42-7.5,0-11.67,0-11.67c-7.91,18.58-24.25,15.17-41,15.17s-28.62,12.21-28.62,12.21
			c6.47-13.46,18.75-14.71,18.75-14.71c-9.69-5.41-19.87-6.31-26.46-6.16V0H159.244z"/>
	</g>
	<g>
		<path fill="#3A3A3A" d="M10.994,158.166v-19.725H3.464v-5.02h20.503v5.02h-7.529v19.725H10.994z"/>
		<path fill="#3A3A3A" d="M36.551,158.591c-2.875,0-5.244-0.913-7.105-2.74c-1.861-1.826-2.792-4.2-2.792-7.123
			c0-2.757,0.884-5.09,2.65-6.999c1.768-1.909,4.007-2.863,6.717-2.863c2.992,0,5.278,0.99,6.857,2.97s2.369,4.419,2.369,7.317
			c0,0.282-0.024,0.754-0.071,1.414H31.991c0.26,1.201,0.79,2.121,1.591,2.757c0.801,0.637,1.814,0.954,3.04,0.954
			c1.674,0,3.205-0.647,4.596-1.943l3.075,2.722C42.384,157.412,39.803,158.591,36.551,158.591z M31.92,147.208h8.095
			c-0.165-1.226-0.595-2.203-1.29-2.935c-0.695-0.729-1.597-1.096-2.704-1.096c-1.084,0-1.985,0.359-2.704,1.078
			C32.597,144.976,32.132,145.959,31.92,147.208z"/>
		<path fill="#3A3A3A" d="M55.64,158.484c-1.768,0-3.129-0.43-4.083-1.29c-0.955-0.86-1.432-2.327-1.432-4.401v-8.979h-2.263v-4.596
			h2.263v-4.843h5.373v4.843h4.454v4.596h-4.454v8.095c0,1.226,0.577,1.838,1.731,1.838c0.942,0,1.826-0.224,2.651-0.671v4.313
			C58.656,158.119,57.242,158.484,55.64,158.484z"/>
		<path fill="#3A3A3A" d="M63.912,158.166v-18.947h5.373v3.817c1.225-2.898,3.24-4.288,6.045-4.171v5.621h-0.283
			c-1.838,0-3.258,0.56-4.26,1.679s-1.502,2.787-1.502,5.002v6.999H63.912z"/>
		<path fill="#3A3A3A" d="M84.061,158.52c-1.862,0-3.411-0.518-4.648-1.555s-1.856-2.475-1.856-4.313
			c0-2.002,0.689-3.511,2.068-4.524c1.379-1.013,3.234-1.521,5.567-1.521c1.579,0,3.122,0.26,4.631,0.778v-0.318
			c0-2.31-1.355-3.464-4.065-3.464c-1.626,0-3.37,0.342-5.231,1.024l-1.344-4.101c2.31-1.013,4.761-1.52,7.354-1.52
			c2.851,0,4.984,0.707,6.398,2.121c1.366,1.367,2.05,3.382,2.05,6.045v10.993h-5.196v-2.05
			C88.35,157.719,86.441,158.52,84.061,158.52z M85.687,154.808c1.249,0,2.263-0.312,3.04-0.937
			c0.777-0.624,1.166-1.419,1.166-2.386v-0.955c-1.013-0.471-2.156-0.706-3.429-0.706c-1.179,0-2.092,0.229-2.739,0.688
			c-0.648,0.46-0.973,1.126-0.973,1.998c0,0.707,0.271,1.267,0.813,1.679S84.815,154.808,85.687,154.808z"/>
		<path fill="#B7B7B7" d="M100.18,158.166v-24.744h5.443v19.796h12.338v4.948H100.18z"/>
		<path fill="#B7B7B7" d="M130.474,158.591c-2.875,0-5.244-0.913-7.105-2.74c-1.861-1.826-2.792-4.2-2.792-7.123
			c0-2.757,0.884-5.09,2.65-6.999c1.768-1.909,4.007-2.863,6.717-2.863c2.992,0,5.278,0.99,6.857,2.97s2.369,4.419,2.369,7.317
			c0,0.282-0.024,0.754-0.071,1.414h-13.186c0.26,1.201,0.79,2.121,1.591,2.757c0.801,0.637,1.814,0.954,3.04,0.954
			c1.674,0,3.205-0.647,4.596-1.943l3.075,2.722C136.307,157.412,133.726,158.591,130.474,158.591z M125.843,147.208h8.095
			c-0.165-1.226-0.595-2.203-1.29-2.935c-0.695-0.729-1.597-1.096-2.704-1.096c-1.084,0-1.985,0.359-2.704,1.078
			C126.52,144.976,126.055,145.959,125.843,147.208z"/>
		<path fill="#B7B7B7" d="M148.538,158.52c-1.862,0-3.411-0.518-4.648-1.555s-1.856-2.475-1.856-4.313
			c0-2.002,0.689-3.511,2.068-4.524c1.379-1.013,3.234-1.521,5.567-1.521c1.579,0,3.122,0.26,4.631,0.778v-0.318
			c0-2.31-1.355-3.464-4.065-3.464c-1.626,0-3.37,0.342-5.231,1.024l-1.344-4.101c2.31-1.013,4.761-1.52,7.354-1.52
			c2.851,0,4.984,0.707,6.398,2.121c1.366,1.367,2.05,3.382,2.05,6.045v10.993h-5.196v-2.05
			C152.827,157.719,150.917,158.52,148.538,158.52z M150.164,154.808c1.249,0,2.263-0.312,3.04-0.937
			c0.777-0.624,1.166-1.419,1.166-2.386v-0.955c-1.013-0.471-2.156-0.706-3.429-0.706c-1.179,0-2.092,0.229-2.739,0.688
			c-0.648,0.46-0.973,1.126-0.973,1.998c0,0.707,0.271,1.267,0.813,1.679S149.292,154.808,150.164,154.808z"/>
		<path fill="#B7B7B7" d="M164.091,158.166v-18.947h5.373v3.817c1.226-2.898,3.24-4.288,6.045-4.171v5.621h-0.282
			c-1.839,0-3.259,0.56-4.26,1.679c-1.002,1.119-1.503,2.787-1.503,5.002v6.999H164.091z"/>
		<path fill="#B7B7B7" d="M178.868,158.166v-18.947h5.373v2.687c1.578-2.026,3.429-3.04,5.55-3.04c2.026,0,3.605,0.625,4.736,1.874
			c1.132,1.249,1.697,2.969,1.697,5.161v12.266h-5.373v-10.569c0-1.249-0.283-2.203-0.849-2.863c-0.565-0.659-1.367-0.99-2.403-0.99
			c-1.038,0-1.856,0.331-2.457,0.99c-0.601,0.66-0.901,1.614-0.901,2.863v10.569H178.868z"/>
	</g>
	<text transform="matrix(1 0 0 1 -422.667 25.4521)"><tspan x="0" y="0" fill="#A09F9F" font-family="'Roboto-Regular'" font-size="14.9283">На пары м</tspan><tspan x="74.233" y="0" fill="#A09F9F" font-family="'Roboto-Regular'" font-size="14.9283">о</tspan><tspan x="82.565" y="0" fill="#A09F9F" font-family="'Roboto-Regular'" font-size="14.9283">жно не </tspan><tspan x="133.99" y="0" fill="#A09F9F" font-family="'Roboto-Regular'" font-size="14.9283">х</tspan><tspan x="141.352" y="0" fill="#A09F9F" font-family="'Roboto-Regular'" font-size="14.9283">одить</tspan></text>
</g>
</svg>
