<?xml version="1.0" encoding="utf-8"?>
<!-- Generator: Adobe Illustrator 16.0.0, SVG Export Plug-In . SVG Version: 6.00 Build 0)  -->
<!DOCTYPE svg PUBLIC "-//W3C//DTD SVG 1.1//EN" "http://www.w3.org/Graphics/SVG/1.1/DTD/svg11.dtd">
<svg version="1.1" xmlns="http://www.w3.org/2000/svg" xmlns:xlink="http://www.w3.org/1999/xlink" x="0px" y="0px"
	 width="120.43px" height="120.43px" viewBox="0 0 120.43 120.43" enable-background="new 0 0 120.43 120.43" xml:space="preserve">
<g id="Слой_1" display="none">
	
		<image display="inline" overflow="visible" opacity="0.2" width="1500" height="1330" xlink:href="../../../../../../Загрузки/stock-vector-owl-logo-627319796.jpg"  transform="matrix(0.24 0 0 0.24 59.1602 -27.2344)">
	</image>
</g>
<g id="Слой_2">
	<rect x="178.5" y="60.211" display="none" fill="#4051A3" width="120.434" height="120.434"/>
	<g>
		<linearGradient id="SVGID_1_" gradientUnits="userSpaceOnUse" x1="-32.4307" y1="129.3208" x2="233.0693" y2="-133.6792">
			<stop  offset="0" style="stop-color:#35C2F2"/>
			<stop  offset="1" style="stop-color:#426FB6"/>
		</linearGradient>
		<path fill="url(#SVGID_1_)" d="M7.14,92.2c0.6,2.23-2.39,8.59-7.14,12.42V89.63C1.63,89.71,6.59,90.12,7.14,92.2z"/>
		<linearGradient id="SVGID_2_" gradientUnits="userSpaceOnUse" x1="-32.6709" y1="129.0781" x2="232.8291" y2="-133.9219">
			<stop  offset="0" style="stop-color:#35C2F2"/>
			<stop  offset="1" style="stop-color:#426FB6"/>
		</linearGradient>
		<path fill="url(#SVGID_2_)" d="M28.58,65.1c0-0.42-0.06-0.82-0.17-1.19c2.56,0.67,4.44,3,4.44,5.77c0,3.3-2.67,5.98-5.98,5.98
			c-3.3,0-5.97-2.68-5.97-5.98c0-0.71,0.13-1.4,0.36-2.03c0.75,0.94,1.92,1.55,3.22,1.55C26.75,69.2,28.58,67.36,28.58,65.1z"/>
		<linearGradient id="SVGID_3_" gradientUnits="userSpaceOnUse" x1="-30.335" y1="131.436" x2="235.165" y2="-131.564">
			<stop  offset="0" style="stop-color:#35C2F2"/>
			<stop  offset="1" style="stop-color:#426FB6"/>
		</linearGradient>
		<path fill="url(#SVGID_3_)" d="M40.49,62.09c1.22,2.24,1.92,4.81,1.92,7.54c0,8.67-7.02,15.7-15.69,15.7
			c-7.42,0-13.64-5.15-15.28-12.08c0.87-0.88,2.35-2.05,4.6-2.91c0.37,5.58,5.01,9.99,10.68,9.99c5.9,0,10.69-4.79,10.69-10.7
			c0-2.21-0.67-4.27-1.83-5.97C36.42,63.25,38.08,62.57,40.49,62.09z"/>
		<linearGradient id="SVGID_4_" gradientUnits="userSpaceOnUse" x1="-35.4619" y1="126.2603" x2="230.0381" y2="-136.7397">
			<stop  offset="0" style="stop-color:#35C2F2"/>
			<stop  offset="1" style="stop-color:#426FB6"/>
		</linearGradient>
		<path fill="url(#SVGID_4_)" d="M57.13,48.71c2.34-1.55,4.06-3.19,4.16-3.28c-0.19,0.37-3.44,6.45-11.67,10.27
			c-8.5,3.94-24.62,6.98-31.33,10.44c-4.16,2.11-8.71,3.35-13.65,13.77c0,0-0.68-16.44,17.76-22.94
			C40.83,50.47,51.95,52.12,57.13,48.71z"/>
		<linearGradient id="SVGID_5_" gradientUnits="userSpaceOnUse" x1="-21.0977" y1="140.7612" x2="244.4023" y2="-122.2388">
			<stop  offset="0" style="stop-color:#35C2F2"/>
			<stop  offset="1" style="stop-color:#426FB6"/>
		</linearGradient>
		<path fill="url(#SVGID_5_)" d="M120.43,0v120.43H70.38c-1.96-5.49-5.13-12.78-5.13-12.78s4.17-6.08,5.75-21.5
			c1.58-15.41-4.75-25.97-4.75-25.97s3.04-2,6.04-6.13c4-5.41,5.99-14.22,6.11-14.76c-3.57,5.95-6.93,7.31-7.14,7.38
			c0.22-0.27,3.74-4.72,6.07-11.99c2.42-7.5,0-11.67,0-11.67c-7.91,18.58-24.25,15.17-41,15.17S7.71,50.39,7.71,50.39
			c6.47-13.46,18.75-14.71,18.75-14.71C16.77,30.27,6.59,29.37,0,29.52V0H120.43z"/>
	</g>
	<text transform="matrix(1 0 0 1 135.188 69.7852)"><tspan x="0" y="0" fill="#3A3A3A" font-family="'GothamPro-Bold'" font-size="54.9001">Tetra</tspan><tspan x="147.46" y="0" fill="#B7B7B7" font-family="'GothamPro-Bold'" font-size="54.9001">Learn</tspan></text>
	<text transform="matrix(1 0 0 1 143.8535 93.1206)"><tspan x="0" y="0" fill="#A09F9F" font-family="'Roboto-Regular'" font-size="14.9283">На пары м</tspan><tspan x="74.233" y="0" fill="#A09F9F" font-family="'Roboto-Regular'" font-size="14.9283">о</tspan><tspan x="82.565" y="0" fill="#A09F9F" font-family="'Roboto-Regular'" font-size="14.9283">жно не </tspan><tspan x="133.99" y="0" fill="#A09F9F" font-family="'Roboto-Regular'" font-size="14.9283">х</tspan><tspan x="141.352" y="0" fill="#A09F9F" font-family="'Roboto-Regular'" font-size="14.9283">одить</tspan></text>
</g>
</svg>
