<?xml version="1.0" encoding="utf-8"?>
<!-- Generator: Adobe Illustrator 16.0.0, SVG Export Plug-In . SVG Version: 6.00 Build 0)  -->
<!DOCTYPE svg PUBLIC "-//W3C//DTD SVG 1.1//EN" "http://www.w3.org/Graphics/SVG/1.1/DTD/svg11.dtd">
<svg version="1.1" xmlns="http://www.w3.org/2000/svg" xmlns:xlink="http://www.w3.org/1999/xlink" x="0px" y="0px"
	 width="443.187px" height="120.43px" viewBox="0 0 443.187 120.43" enable-background="new 0 0 443.187 120.43"
	 xml:space="preserve">
<g id="Слой_1" display="none">
	
		<image display="inline" overflow="visible" opacity="0.2" width="1500" height="1330" xlink:href="../../../../../../Загрузки/stock-vector-owl-logo-627319796.jpg"  transform="matrix(0.24 0 0 0.24 59.1602 -27.2344)">
	</image>
</g>
<g id="Слой_2">
	<rect x="178.5" y="60.211" display="none" fill="#4051A3" width="120.434" height="120.434"/>
	<g>
		<linearGradient id="SVGID_1_" gradientUnits="userSpaceOnUse" x1="-32.4307" y1="129.3208" x2="233.0693" y2="-133.6792">
			<stop  offset="0" style="stop-color:#35C2F2"/>
			<stop  offset="1" style="stop-color:#426FB6"/>
		</linearGradient>
		<path fill="url(#SVGID_1_)" d="M7.14,92.2c0.6,2.23-2.39,8.59-7.14,12.42V89.63C1.63,89.71,6.59,90.12,7.14,92.2z"/>
		<linearGradient id="SVGID_2_" gradientUnits="userSpaceOnUse" x1="-32.6709" y1="129.0781" x2="232.8291" y2="-133.9219">
			<stop  offset="0" style="stop-color:#35C2F2"/>
			<stop  offset="1" style="stop-color:#426FB6"/>
		</linearGradient>
		<path fill="url(#SVGID_2_)" d="M28.58,65.1c0-0.42-0.06-0.82-0.17-1.19c2.56,0.67,4.44,3,4.44,5.77c0,3.3-2.67,5.98-5.98,5.98
			c-3.3,0-5.97-2.68-5.97-5.98c0-0.71,0.13-1.4,0.36-2.03c0.75,0.94,1.92,1.55,3.22,1.55C26.75,69.2,28.58,67.36,28.58,65.1z"/>
		<linearGradient id="SVGID_3_" gradientUnits="userSpaceOnUse" x1="-30.335" y1="131.436" x2="235.165" y2="-131.564">
			<stop  offset="0" style="stop-color:#35C2F2"/>
			<stop  offset="1" style="stop-color:#426FB6"/>
		</linearGradient>
		<path fill="url(#SVGID_3_)" d="M40.49,62.09c1.22,2.24,1.92,4.81,1.92,7.54c0,8.67-7.02,15.7-15.69,15.7
			c-7.42,0-13.64-5.15-15.28-12.08c0.87-0.88,2.35-2.05,4.6-2.91c0.37,5.58,5.01,9.99,10.68,9.99c5.9,0,10.69-4.79,10.69-10.7
			c0-2.21-0.67-4.27-1.83-5.97C36.42,63.25,38.08,62.57,40.49,62.09z"/>
		<linearGradient id="SVGID_4_" gradientUnits="userSpaceOnUse" x1="-35.4619" y1="126.2603" x2="230.0381" y2="-136.7397">
			<stop  offset="0" style="stop-color:#35C2F2"/>
			<stop  offset="1" style="stop-color:#426FB6"/>
		</linearGradient>
		<path fill="url(#SVGID_4_)" d="M57.13,48.71c2.34-1.55,4.06-3.19,4.16-3.28c-0.19,0.37-3.44,6.45-11.67,10.27
			c-8.5,3.94-24.62,6.98-31.33,10.44c-4.16,2.11-8.71,3.35-13.65,13.77c0,0-0.68-16.44,17.76-22.94
			C40.83,50.47,51.95,52.12,57.13,48.71z"/>
		<linearGradient id="SVGID_5_" gradientUnits="userSpaceOnUse" x1="-21.0977" y1="140.7612" x2="244.4023" y2="-122.2388">
			<stop  offset="0" style="stop-color:#35C2F2"/>
			<stop  offset="1" style="stop-color:#426FB6"/>
		</linearGradient>
		<path fill="url(#SVGID_5_)" d="M120.43,0v120.43H70.38c-1.96-5.49-5.13-12.78-5.13-12.78s4.17-6.08,5.75-21.5
			c1.58-15.41-4.75-25.97-4.75-25.97s3.04-2,6.04-6.13c4-5.41,5.99-14.22,6.11-14.76c-3.57,5.95-6.93,7.31-7.14,7.38
			c0.22-0.27,3.74-4.72,6.07-11.99c2.42-7.5,0-11.67,0-11.67c-7.91,18.58-24.25,15.17-41,15.17S7.71,50.39,7.71,50.39
			c6.47-13.46,18.75-14.71,18.75-14.71C16.77,30.27,6.59,29.37,0,29.52V0H120.43z"/>
	</g>
	<g>
		<path fill="#3A3A3A" d="M148.749,69.785V39.151h-11.694v-7.796h31.842v7.796h-11.693v30.634H148.749z"/>
		<path fill="#3A3A3A" d="M188.441,70.444c-4.466,0-8.144-1.418-11.035-4.255c-2.892-2.835-4.337-6.523-4.337-11.062
			c0-4.282,1.373-7.906,4.118-10.87c2.745-2.965,6.222-4.447,10.431-4.447c4.647,0,8.198,1.538,10.65,4.612
			c2.452,3.074,3.678,6.862,3.678,11.364c0,0.439-0.037,1.172-0.11,2.196h-20.478c0.402,1.867,1.226,3.294,2.471,4.282
			c1.244,0.988,2.818,1.482,4.721,1.482c2.598,0,4.977-1.006,7.137-3.02l4.776,4.228C197.5,68.614,193.492,70.444,188.441,70.444z
			 M181.249,52.766h12.572c-0.256-1.903-0.925-3.422-2.004-4.557c-1.08-1.134-2.48-1.702-4.2-1.702c-1.684,0-3.084,0.559-4.2,1.675
			C182.301,49.299,181.579,50.827,181.249,52.766z"/>
		<path fill="#3A3A3A" d="M218.086,70.279c-2.745,0-4.858-0.667-6.341-2.004c-1.482-1.335-2.224-3.614-2.224-6.835V47.496h-3.513
			v-7.137h3.513v-7.521h8.345v7.521h6.917v7.137h-6.917v12.572c0,1.903,0.896,2.855,2.69,2.855c1.463,0,2.836-0.348,4.118-1.043
			v6.698C222.771,69.712,220.575,70.279,218.086,70.279z"/>
		<path fill="#3A3A3A" d="M230.933,69.785V40.359h8.345v5.929c1.902-4.502,5.032-6.661,9.388-6.479v8.729h-0.439
			c-2.855,0-5.061,0.87-6.616,2.607c-1.556,1.739-2.333,4.329-2.333,7.769v10.87H230.933z"/>
		<path fill="#3A3A3A" d="M262.225,70.334c-2.891,0-5.297-0.805-7.219-2.416c-1.922-1.61-2.882-3.843-2.882-6.698
			c0-3.11,1.07-5.453,3.211-7.027c2.141-1.573,5.023-2.36,8.647-2.36c2.451,0,4.848,0.403,7.191,1.208v-0.494
			c0-3.586-2.105-5.38-6.314-5.38c-2.525,0-5.233,0.531-8.125,1.592l-2.086-6.368c3.586-1.573,7.392-2.361,11.419-2.361
			c4.428,0,7.74,1.098,9.938,3.294c2.121,2.123,3.184,5.252,3.184,9.388v17.074h-8.07v-3.184
			C268.887,69.09,265.922,70.334,262.225,70.334z M264.75,64.57c1.939,0,3.514-0.485,4.723-1.455
			c1.207-0.969,1.811-2.205,1.811-3.706v-1.482c-1.574-0.732-3.348-1.098-5.324-1.098c-1.832,0-3.25,0.357-4.256,1.071
			c-1.007,0.713-1.509,1.748-1.509,3.102c0,1.098,0.419,1.968,1.263,2.608C262.299,64.25,263.397,64.57,264.75,64.57z"/>
		<path fill="#B7B7B7" d="M287.259,69.785v-38.43h8.455v30.744h19.16v7.686H287.259z"/>
		<path fill="#B7B7B7" d="M334.308,70.444c-4.466,0-8.144-1.418-11.035-4.255c-2.892-2.835-4.337-6.523-4.337-11.062
			c0-4.282,1.373-7.906,4.117-10.87c2.745-2.965,6.223-4.447,10.432-4.447c4.647,0,8.198,1.538,10.65,4.612
			s3.679,6.862,3.679,11.364c0,0.439-0.037,1.172-0.11,2.196h-20.478c0.402,1.867,1.226,3.294,2.471,4.282
			c1.243,0.988,2.817,1.482,4.722,1.482c2.598,0,4.977-1.006,7.137-3.02l4.776,4.228C343.367,68.614,339.359,70.444,334.308,70.444z
			 M327.117,52.766h12.571c-0.256-1.903-0.925-3.422-2.004-4.557c-1.079-1.134-2.479-1.702-4.199-1.702
			c-1.684,0-3.084,0.559-4.2,1.675C328.167,49.299,327.446,50.827,327.117,52.766z"/>
		<path fill="#B7B7B7" d="M362.362,70.334c-2.892,0-5.298-0.805-7.22-2.416c-1.921-1.61-2.882-3.843-2.882-6.698
			c0-3.11,1.07-5.453,3.212-7.027c2.141-1.573,5.022-2.36,8.646-2.36c2.451,0,4.849,0.403,7.191,1.208v-0.494
			c0-3.586-2.104-5.38-6.313-5.38c-2.525,0-5.234,0.531-8.125,1.592l-2.086-6.368c3.586-1.573,7.393-2.361,11.419-2.361
			c4.428,0,7.741,1.098,9.938,3.294c2.122,2.123,3.184,5.252,3.184,9.388v17.074h-8.07v-3.184
			C369.023,69.09,366.058,70.334,362.362,70.334z M364.887,64.57c1.939,0,3.514-0.485,4.722-1.455
			c1.207-0.969,1.812-2.205,1.812-3.706v-1.482c-1.574-0.732-3.349-1.098-5.325-1.098c-1.831,0-3.249,0.357-4.255,1.071
			c-1.007,0.713-1.51,1.748-1.51,3.102c0,1.098,0.42,1.968,1.263,2.608C362.435,64.25,363.533,64.57,364.887,64.57z"/>
		<path fill="#B7B7B7" d="M386.518,69.785V40.359h8.345v5.929c1.902-4.502,5.032-6.661,9.388-6.479v8.729h-0.439
			c-2.854,0-5.06,0.87-6.615,2.607c-1.556,1.739-2.333,4.329-2.333,7.769v10.87H386.518z"/>
		<path fill="#B7B7B7" d="M409.466,69.785V40.359h8.345v4.172c2.451-3.147,5.325-4.722,8.619-4.722c3.147,0,5.6,0.97,7.356,2.91
			c1.757,1.94,2.636,4.612,2.636,8.016v19.05h-8.345V53.37c0-1.939-0.439-3.422-1.318-4.447c-0.878-1.024-2.123-1.538-3.732-1.538
			c-1.611,0-2.883,0.513-3.816,1.538c-0.933,1.025-1.399,2.507-1.399,4.447v16.415H409.466z"/>
	</g>
	<g>
		<path fill="#A09F9F" d="M145.093,93.121V82.507h1.436v4.796h5.153v-4.796h1.436v10.613h-1.436v-4.687h-5.153v4.687H145.093z"/>
		<path fill="#A09F9F" d="M155.13,90.905c0-0.753,0.305-1.342,0.915-1.768s1.437-0.638,2.482-0.638h1.56v-0.78
			c0-0.461-0.141-0.827-0.423-1.097c-0.282-0.27-0.681-0.404-1.195-0.404c-0.467,0-0.843,0.117-1.13,0.35
			c-0.287,0.233-0.43,0.513-0.43,0.838l-1.392,0.015l-0.014-0.043c-0.032-0.574,0.24-1.099,0.816-1.575s1.319-0.714,2.23-0.714
			c0.894,0,1.613,0.227,2.158,0.682c0.544,0.455,0.816,1.109,0.816,1.964v3.798c0,0.282,0.015,0.554,0.044,0.816
			c0.029,0.262,0.083,0.52,0.16,0.772h-1.479c-0.049-0.238-0.086-0.448-0.113-0.63c-0.027-0.183-0.043-0.366-0.047-0.55
			c-0.268,0.379-0.616,0.696-1.046,0.951c-0.43,0.255-0.893,0.382-1.388,0.382c-0.821,0-1.447-0.21-1.877-0.63
			C155.345,92.223,155.13,91.644,155.13,90.905z M156.566,90.934c0,0.35,0.109,0.626,0.328,0.831s0.542,0.306,0.97,0.306
			c0.52,0,0.989-0.133,1.407-0.401c0.417-0.267,0.69-0.573,0.816-0.918v-1.283h-1.611c-0.578,0-1.041,0.146-1.388,0.438
			C156.74,90.198,156.566,90.54,156.566,90.934z"/>
		<path fill="#A09F9F" d="M167.317,93.121v-7.887h6.393v7.887h-1.436v-6.757h-3.521v6.757H167.317z"/>
		<path fill="#A09F9F" d="M175.532,90.905c0-0.753,0.305-1.342,0.915-1.768s1.437-0.638,2.482-0.638h1.56v-0.78
			c0-0.461-0.141-0.827-0.423-1.097c-0.282-0.27-0.681-0.404-1.195-0.404c-0.467,0-0.843,0.117-1.13,0.35
			c-0.287,0.233-0.43,0.513-0.43,0.838l-1.392,0.015l-0.014-0.043c-0.032-0.574,0.24-1.099,0.816-1.575s1.319-0.714,2.23-0.714
			c0.894,0,1.613,0.227,2.158,0.682c0.544,0.455,0.816,1.109,0.816,1.964v3.798c0,0.282,0.015,0.554,0.044,0.816
			c0.029,0.262,0.083,0.52,0.16,0.772h-1.479c-0.049-0.238-0.086-0.448-0.113-0.63c-0.027-0.183-0.043-0.366-0.047-0.55
			c-0.268,0.379-0.616,0.696-1.046,0.951c-0.43,0.255-0.893,0.382-1.388,0.382c-0.821,0-1.447-0.21-1.877-0.63
			C175.748,92.223,175.532,91.644,175.532,90.905z M176.968,90.934c0,0.35,0.109,0.626,0.328,0.831s0.542,0.306,0.97,0.306
			c0.52,0,0.989-0.133,1.407-0.401c0.417-0.267,0.69-0.573,0.816-0.918v-1.283h-1.611c-0.578,0-1.041,0.146-1.388,0.438
			C177.142,90.198,176.968,90.54,176.968,90.934z"/>
		<path fill="#A09F9F" d="M184.01,96.153V85.234h1.101l0.226,1.021c0.257-0.379,0.578-0.668,0.962-0.868s0.831-0.299,1.341-0.299
			c0.977,0,1.736,0.388,2.278,1.163c0.542,0.775,0.813,1.799,0.813,3.072v0.153c0,1.137-0.272,2.054-0.816,2.751
			c-0.544,0.698-1.295,1.046-2.252,1.046c-0.486,0-0.913-0.082-1.279-0.246c-0.367-0.164-0.679-0.41-0.937-0.737v3.862H184.01z
			 M185.446,91.11c0.18,0.326,0.416,0.579,0.707,0.761c0.292,0.182,0.648,0.273,1.071,0.273c0.68,0,1.195-0.249,1.545-0.747
			c0.35-0.498,0.525-1.139,0.525-1.925v-0.153c0-0.893-0.176-1.627-0.529-2.203c-0.352-0.575-0.871-0.862-1.556-0.862
			c-0.413,0-0.765,0.093-1.057,0.28c-0.292,0.187-0.527,0.443-0.707,0.768V91.11z"/>
		<path fill="#A09F9F" d="M192.713,93.121v-7.887h1.436v2.996h1.958c0.932,0,1.656,0.224,2.173,0.672
			c0.517,0.448,0.775,1.029,0.775,1.745c0,0.72-0.261,1.313-0.783,1.777c-0.522,0.465-1.244,0.697-2.166,0.697H192.713z
			 M194.149,91.991h1.961c0.515,0,0.896-0.124,1.141-0.371c0.246-0.247,0.368-0.555,0.368-0.923c0-0.358-0.124-0.671-0.372-0.938
			s-0.627-0.4-1.137-0.4h-1.961V91.991z M200.454,93.121v-7.887h1.436v7.887H200.454z"/>
		<path fill="#A09F9F" d="M208.064,93.121v-7.887h1.852l2.566,6.006h0.043l2.581-6.006h1.793v7.887h-1.436v-5.474l-0.043-0.015
			l-2.42,5.489h-0.991l-2.464-5.613l-0.043,0.015v5.598H208.064z"/>
		<path fill="#A09F9F" d="M218.793,89.265v-0.16c0-1.167,0.316-2.127,0.948-2.883c0.631-0.755,1.489-1.133,2.573-1.133
			c1.094,0,1.958,0.376,2.591,1.13c0.634,0.753,0.952,1.715,0.952,2.887v0.16c0,1.176-0.316,2.138-0.948,2.887
			c-0.632,0.748-1.492,1.122-2.581,1.122s-1.95-0.375-2.584-1.126S218.793,90.436,218.793,89.265z M220.229,89.261
			c0,0.835,0.176,1.524,0.528,2.068c0.353,0.543,0.876,0.815,1.571,0.815c0.686,0,1.205-0.272,1.56-0.815
			c0.354-0.543,0.532-1.233,0.532-2.068v-0.16c0-0.825-0.179-1.512-0.536-2.06c-0.357-0.548-0.881-0.823-1.571-0.823
			c-0.685,0-1.204,0.274-1.556,0.823c-0.352,0.548-0.528,1.235-0.528,2.06V89.261z"/>
		<path fill="#A09F9F" d="M226.608,93.121l2.945-4.161l-2.697-3.726h1.735l2.084,3.265h0.386v-3.265h1.436v3.265h0.394l2.092-3.265
			h1.728l-2.697,3.726l2.945,4.161h-1.808l-2.23-3.418h-0.423v3.418h-1.436v-3.418h-0.423l-2.223,3.418H226.608z"/>
		<path fill="#A09F9F" d="M238.198,93.121v-7.887h1.436v3.411h3.513v-3.411h1.436v7.887h-1.436v-3.346h-3.513v3.346H238.198z"/>
		<path fill="#A09F9F" d="M246.347,89.265v-0.16c0-1.167,0.316-2.127,0.948-2.883c0.631-0.755,1.489-1.133,2.573-1.133
			c1.094,0,1.958,0.376,2.591,1.13c0.635,0.753,0.951,1.715,0.951,2.887v0.16c0,1.176-0.316,2.138-0.947,2.887
			c-0.632,0.748-1.492,1.122-2.581,1.122s-1.95-0.375-2.584-1.126S246.347,90.436,246.347,89.265z M247.783,89.261
			c0,0.835,0.176,1.524,0.528,2.068c0.353,0.543,0.876,0.815,1.571,0.815c0.686,0,1.205-0.272,1.56-0.815
			c0.354-0.543,0.532-1.233,0.532-2.068v-0.16c0-0.825-0.179-1.512-0.536-2.06c-0.357-0.548-0.881-0.823-1.571-0.823
			c-0.685,0-1.204,0.274-1.556,0.823c-0.352,0.548-0.528,1.235-0.528,2.06V89.261z"/>
		<path fill="#A09F9F" d="M258.876,93.121v-7.887h1.437v3.411h3.514v-3.411h1.436v7.887h-1.436v-3.346h-3.514v3.346H258.876z"/>
		<path fill="#A09F9F" d="M267.026,89.33v-0.321c0-1.132,0.327-2.069,0.98-2.81c0.653-0.741,1.451-1.112,2.395-1.112
			c1.055,0,1.846,0.328,2.372,0.984c0.527,0.656,0.791,1.528,0.791,2.617v0.758h-5.044l-0.021,0.037c0,0.79,0.175,1.431,0.524,1.923
			c0.35,0.492,0.885,0.738,1.604,0.738c0.486,0,0.912-0.069,1.279-0.208c0.367-0.138,0.682-0.328,0.944-0.571l0.562,0.932
			c-0.282,0.274-0.654,0.505-1.115,0.693c-0.462,0.188-1.019,0.282-1.67,0.282c-1.132,0-2.016-0.362-2.649-1.086
			S267.026,90.511,267.026,89.33z M268.556,88.281l0.015,0.036h3.558V88.2c0-0.573-0.141-1.047-0.423-1.421
			c-0.282-0.374-0.717-0.561-1.305-0.561c-0.501,0-0.915,0.193-1.243,0.58S268.629,87.678,268.556,88.281z"/>
		<path fill="#A09F9F" d="M278.178,93.121l2.632-3.987l-2.559-3.899h1.654l1.655,2.908l1.676-2.908h1.677l-2.559,3.899l2.632,3.987
			h-1.647l-1.749-2.981l-1.75,2.981H278.178z"/>
		<path fill="#A09F9F" d="M285.913,89.265v-0.16c0-1.167,0.315-2.127,0.947-2.883c0.632-0.755,1.489-1.133,2.573-1.133
			c1.094,0,1.957,0.376,2.592,1.13c0.634,0.753,0.951,1.715,0.951,2.887v0.16c0,1.176-0.316,2.138-0.948,2.887
			c-0.631,0.748-1.491,1.122-2.58,1.122s-1.95-0.375-2.584-1.126S285.913,90.436,285.913,89.265z M287.348,89.261
			c0,0.835,0.177,1.524,0.529,2.068c0.352,0.543,0.875,0.815,1.57,0.815c0.686,0,1.205-0.272,1.56-0.815
			c0.355-0.543,0.532-1.233,0.532-2.068v-0.16c0-0.825-0.179-1.512-0.535-2.06c-0.357-0.548-0.881-0.823-1.571-0.823
			c-0.685,0-1.204,0.274-1.556,0.823c-0.353,0.548-0.529,1.235-0.529,2.06V89.261z"/>
		<path fill="#A09F9F" d="M294.193,91.991h0.772c0.379,0,0.654-0.312,0.827-0.935c0.173-0.624,0.298-1.575,0.375-2.856l0.19-2.966
			h5.233v6.757h1.042v3.732h-1.436v-2.602h-5.569v2.602h-1.436V91.991z M296.926,91.991h3.229v-5.554h-2.46l-0.171,1.713
			c-0.093,0.936-0.17,1.712-0.231,2.33S297.11,91.601,296.926,91.991z"/>
		<path fill="#A09F9F" d="M304.186,93.121v-7.887h1.437v5.598l0.043,0.014l3.478-5.612h1.436v7.887h-1.436v-5.598l-0.044-0.015
			l-3.477,5.613H304.186z"/>
		<path fill="#A09F9F" d="M312.146,86.363v-1.129h6.604v1.129h-2.602v6.757h-1.437v-6.757H312.146z"/>
		<path fill="#A09F9F" d="M320.383,93.121v-7.887h1.436v2.996h1.958c0.932,0,1.656,0.224,2.173,0.672s0.775,1.029,0.775,1.745
			c0,0.72-0.261,1.313-0.783,1.777c-0.521,0.465-1.243,0.697-2.166,0.697H320.383z M321.819,91.991h1.961
			c0.516,0,0.896-0.124,1.141-0.371c0.246-0.247,0.368-0.555,0.368-0.923c0-0.358-0.124-0.671-0.371-0.938
			c-0.248-0.267-0.627-0.4-1.138-0.4h-1.961V91.991z"/>
	</g>
</g>
</svg>
