<svg width="64" height="87" viewBox="0 0 64 87" fill="none" xmlns="http://www.w3.org/2000/svg">
<path d="M29 11C29 8.23853 26.7614 6 24 6C21.2386 6 19 8.23853 19 11V59H13V11C13 4.9248 17.9249 0 24 0C27.1521 0 29.9945 1.32593 32 3.4502C34.0055 1.32593 36.8479 0 40 0C46.0751 0 51 4.9248 51 11V59H45V11C45 8.23853 42.7614 6 40 6C37.2386 6 35 8.23853 35 11V59H29V11Z" fill="#999999"/>
<path d="M0 0H6V55C6 69.3594 17.6406 81 32 81C46.3594 81 58 69.3594 58 55V0H64V85H58V73.6589C52.1915 81.7383 42.7102 87 32 87C14.3269 87 0 72.6731 0 55V0Z" fill="#999999"/>
</svg>
